<?xml version="1.0"?><svg version="1.2" baseProfile="tiny-ps" viewBox="0 0 195 195" xmlns="http://www.w3.org/2000/svg" xmlns:xlink="http://www.w3.org/1999/xlink"><title>StaffOS.uk</title><g><svg xmlns="http://www.w3.org/2000/svg" xmlns:xlink="http://www.w3.org/1999/xlink" width="195" height="195"/><svg xmlns="http://www.w3.org/2000/svg" width="195" height="195" version="1.0" viewBox="0 0 195 195"><g fill="#1cdbd4" transform="matrix(.1 0 0 -.1 0 195)"><path d="M824 1931c-22-10-57-33-78-51l-37-33-27-51-26-51-1-75v-75l22-40c12-22 41-59 65-82l43-42 49-22 49-21h125l51 23 51 22 50 54 50 54 16 56 16 56-7 51-6 51-27 49-27 49-48 38-48 38-37 11c-20 5-68 10-107 10h-70l-41-19zm653-533C909 881 592 592 554 554l-41-41-11-34c-6-19-18-117-27-219-8-102-17-195-20-207s-2-29 1-37l6-16h77l223 81c123 44 332 121 465 170s245 89 249 89 22 12 41 26l33 25 22 42 23 42-2 173-2 172 52 39c68 51 102 88 116 130l11 34v546l-16 15c-8 9-24 16-35 16h-19l-223-202zm-502-184c-88-19-227-45-310-60-82-14-199-36-260-49-60-13-136-28-168-35l-57-11-15-29-15-29V529l10-20 11-19h61l102 76c155 116 845 668 846 677 0 12-38 7-205-29z"/></g></svg><svg xmlns="http://www.w3.org/2000/svg" width="195" height="195" version="1.0" viewBox="0 0 195 195"><g fill="#20c0bf" transform="matrix(.1 0 0 -.1 0 195)"><path d="M1077 1919c7-7 15-10 18-7s-2 9-12 12l-18 7 12-12zm73-54c13-14 26-25 28-25 3 0-5 11-18 25s-26 25-28 25c-3 0 5-11 18-25zm40-54c0-6 4-13 10-16l10-6-6 15c-7 18-14 21-14 7zm-539-107 1-19 5 13c3 7 2 16-1 19-3 4-6-2-5-13zm582-34v-45l4 23c2 12 2 32 0 45l-4 22v-45zm-581-25v-30l5 18c2 9 2 23 0 30l-5 12v-30zm825-247C909 881 592 592 554 554l-41-41-11-34c-6-19-18-117-27-219-8-102-17-195-20-207s-2-29 1-37l6-16h77l223 81c123 44 332 121 465 170s245 89 249 89 22 12 41 26l33 25 22 42 23 42-2 173-2 172 52 39c68 51 102 88 116 130l11 34v546l-16 15c-8 9-24 16-35 16h-19l-223-202zm-811 179c3-10 9-15 12-12s0 11-7 18l-12 12 7-18zm535-24-11-28 15 19c8 11 15 23 15 28 0 15-7 8-19-19zm-323-160c7-3 16-2 19 1 4 3-2 6-13 5l-19-1 13-5zm120 0c7-3 16-2 19 1 4 3-2 6-13 5l-19-1 13-5zm140-150c6-2 18-2 25 0l12 5h-50l13-5zm-50-10c6-2 18-2 25 0l12 5h-50l13-5zm-100-20c7-3 16-2 19 1 4 3-2 6-13 5l-19-1 13-5zm141-10-14-18 18 14c16 13 21 21 13 21-2 0-10-8-17-17zm-191 0c7-3 16-2 19 1 4 3-2 6-13 5l-19-1 13-5zm-50-10c7-3 16-2 19 1 4 3-2 6-13 5l-19-1 13-5zm-40-10c7-3 16-2 19 1 4 3-2 6-13 5l-19-1 13-5zm-50-10c7-3 16-2 19 1 4 3-2 6-13 5l-19-1 13-5zm281-10-14-18 18 14c9 7 17 15 17 17 0 8-8 3-21-13zm-341 0c7-3 16-2 19 1 4 3-2 6-13 5l-19-1 13-5zm-50-10c6-2 18-2 25 0l12 5h-50l13-5zm-60-10c6-2 18-2 25 0l12 5h-50l13-5zm-170-30c7-3 16-2 19 1 4 3-2 6-13 5l-19-1 13-5zm-140-30c7-3 16-2 19 1 4 3-2 6-13 5l-19-1 13-5zm-100-20c7-3 16-2 19 1 4 3-2 6-13 5l-19-1 13-5zm651-70-14-18 18 14c9 7 17 15 17 17 0 8-8 3-21-13zm-50-40-14-18 18 14c9 7 17 15 17 17 0 8-8 3-21-13zm-90-70-24-28 28 24c15 14 27 26 27 28 0 8-8 1-31-24zm-59-44c-14-12-34-27-44-35-11-7-18-16-15-18 2-2 24 13 49 35 46 39 55 55 10 18zM529 723l-14-18 18 14c9 7 17 15 17 17 0 8-8 3-21-13zm-50-40-14-18 18 14c9 7 17 15 17 17 0 8-8 3-21-13zm-50-40-14-18 18 14c9 7 17 15 17 17 0 8-8 3-21-13zm-80-60-14-18 18 14c16 13 21 21 13 21-2 0-10-8-17-17zm-75-55-19-23 23 19c21 18 27 26 19 26-2 0-12-10-23-22zm-107-29c7-7 15-10 18-7s-2 9-12 12l-18 7 12-12zm63 1-15-10h12c6 0 15 5 18 10 8 12 4 12-15 0z"/></g></svg><svg xmlns="http://www.w3.org/2000/svg" width="195" height="195" version="1.0" viewBox="0 0 195 195"><g fill="#19a09e" transform="matrix(.1 0 0 -.1 0 195)"><path d="m651 1704 1-19 5 13c3 7 2 16-1 19-3 4-6-2-5-13zm581-14v-25l5 13c2 6 2 18 0 25l-5 12v-25zm-580-45v-30l5 18c2 9 2 23 0 30l-5 12v-30zm579-1 1-19 5 13c3 7 2 16-1 19-3 4-6-2-5-13zm246-246C909 881 592 592 554 554l-41-41-11-34c-6-19-18-117-27-219-8-102-17-195-20-207s-2-29 1-37l6-16h77l223 81c123 44 332 121 465 170s245 89 249 89 22 12 41 26l33 25 22 42 23 42-2 173-2 172 52 39c68 51 102 88 116 130l11 34v546l-16 15c-8 9-24 16-35 16h-19l-223-202zm-479-5c7-3 16-2 19 1 4 3-2 6-13 5l-19-1 13-5zm-110-200c7-3 16-2 19 1 4 3-2 6-13 5l-19-1 13-5zM429 643l-14-18 18 14c9 7 17 15 17 17 0 8-8 3-21-13z"/></g></svg><svg xmlns="http://www.w3.org/2000/svg" width="195" height="195" version="1.0" viewBox="0 0 195 195"><g fill="#487297" transform="matrix(.1 0 0 -.1 0 195)"><path d="m1231 1694 1-19 5 13c3 7 2 16-1 19-3 4-6-2-5-13zm-579-54v-25l5 13c2 6 2 18 0 25l-5 12v-25zm579 4 1-19 5 13c3 7 2 16-1 19-3 4-6-2-5-13zm251-241c-119-108-246-224-282-257-80-75-211-194-435-397-93-85-189-172-211-195l-41-41-11-34c-6-19-18-117-27-219-8-102-17-195-20-207s-2-29 1-37l6-16h77l223 81c123 44 332 121 465 170s245 89 249 89 22 12 41 26l33 25 22 42 23 42-2 173-2 172 52 39c68 51 102 88 116 130l11 34v546l-16 15c-8 9-24 16-35 16h-19l-218-197z"/></g></svg><svg xmlns="http://www.w3.org/2000/svg" width="195" height="195" version="1.0" viewBox="0 0 195 195"><g fill="#345d7c" transform="matrix(.1 0 0 -.1 0 195)"><path d="m1231 1694 1-19 5 13c3 7 2 16-1 19-3 4-6-2-5-13zm-579-54v-25l5 13c2 6 2 18 0 25l-5 12v-25zm579 4 1-19 5 13c3 7 2 16-1 19-3 4-6-2-5-13zm438-71-14-18 18 14c9 7 17 15 17 17 0 8-8 3-21-13zm94-78v-80l4 43c2 23 2 59 0 80l-4 37v-80zm-194-12-14-18 18 14c9 7 17 15 17 17 0 8-8 3-21-13zm195-273v-205l3 103c2 56 2 148 0 205l-3 102v-205zm-509-10-6-10h10c6 0 11 5 11 10 0 6-2 10-4 10-3 0-8-4-11-10zm-176-167-14-18 18 14c9 7 17 15 17 17 0 8-8 3-21-13zm-85-75-19-23 23 19c21 18 27 26 19 26-2 0-12-10-23-22zm-100-90-19-23 23 19c21 18 27 26 19 26-2 0-12-10-23-22zm681-48c-22-16-132-88-245-161-259-167-426-278-661-440C566 148 478 90 472 90h-9l-6-30c-4-16-4-37-1-45l6-15h77l223 81c123 44 332 121 465 170s245 89 249 89 22 12 41 26l33 25 22 42 23 42-2 170-2 170 16 17c22 24 15 22-32-12zm-796-57-24-28 28 24c15 14 27 26 27 28 0 8-8 1-31-24zm-105-95-29-33 33 29c30 28 37 36 29 36-2 0-16-15-33-32zM549 553l-24-28 28 24c25 23 32 31 24 31-2 0-14-12-28-27zm-58-109 1-19 5 13c3 7 2 16-1 19-3 4-6-2-5-13zm-9-104v-35l5 18c2 9 2 25 0 35l-5 17v-35zm-10-110v-35l5 18c2 9 2 25 0 35l-5 17v-35zm-10-110V95l5 13c2 6 2 18 0 25l-5 12v-25z"/></g></svg><svg xmlns="http://www.w3.org/2000/svg" width="195" height="195" version="1.0" viewBox="0 0 195 195"><g fill="#253d62" transform="matrix(.1 0 0 -.1 0 195)"><path d="M1339 662c-253-164-506-333-739-495L465 73l2-11c2-7-2-12-7-12-15 0-12-19 4-36l15-14h60l223 81c123 44 332 121 465 170s245 89 249 89 22 12 41 26l33 25 22 42 23 42-2 169c-1 92-3 170-6 172-2 2-113-67-248-154zm241-37c0-8-2-15-4-15s-6 7-10 15l-5 15h9c6 0 10-7 10-15zm10-85c0-5-4-10-10-10-5 0-10 5-10 10 0 6 5 10 10 10 6 0 10-4 10-10zm-10-65c0-9-30-65-34-65-2 0 1 16 7 35s14 35 19 35c4 0 8-2 8-5zM669 663l-24-28 28 24c25 23 32 31 24 31-2 0-14-12-28-27zM472 235v-30l5 18c2 9 2 23 0 30l-5 12v-30zm-11-111 1-19 5 13c3 7 2 16-1 19-3 4-6-2-5-13z"/></g></svg></g></svg>